<svg class="svgIcon cursor-pointer svgIcon__shoppingBag" xmlns="http://www.w3.org/2000/svg" xmlns:xlink="http://www.w3.org/1999/xlink" x="0px" y="0px" viewBox="0 0 20 22.6" style="enable-background:new 0 0 20 22.6;" xml:space="preserve">
        <path class="svgIcon--style3" d="M4,5.6H1v14c0,0.5,0.2,1,0.6,1.4C2,21.4,2.5,21.6,3,21.6h14c0.5,0,1-0.2,1.4-0.6c0.4-0.4,0.6-0.9,0.6-1.4v-14h-3H4z"></path>
        <path class="svgIcon--style2" d="M15,9V6.1c0-1.3-0.5-2.6-1.5-3.6C12.6,1.5,11.3,1,10,1S7.4,1.5,6.5,2.5C5.5,3.4,5,4.7,5,6.1V9"></path>
    </svg>