<svg class="brand-switcher__image customLogoColor__sloggi" width="139" height="60" viewBox="0 0 139 60" fill="black" xmlns="http://www.w3.org/2000/svg">
              <path d="M29.9339 13.707C14.1241 13.707 20.0876 33.8499 8.84887 33.8499C5.28128 33.8499 4.1201 31.3553 3.043 32.7653C2.77503 33.1217 1.37742 35.0017 0.741665 35.7507C-0.309171 36.954 5.17619 38.9528 8.22888 38.9528C25.2735 38.9528 18.9053 19.2748 29.4452 19.2748C30.7693 19.2748 31.1844 18.9597 31.1844 18.0197V14.8433C31.1844 13.8517 31.0899 13.707 29.9339 13.707Z"></path>
              <path d="M57.1819 13.7076C54.6631 13.7167 52.2034 14.4597 50.114 15.8424C48.0244 17.2251 46.3987 19.1856 45.4422 21.4762C44.4857 23.7669 44.2413 26.2847 44.74 28.7117C45.2386 31.1389 46.4579 33.3661 48.2439 35.1122C50.0297 36.8584 52.3021 38.045 54.7737 38.5222C57.2454 38.9994 59.8055 38.7457 62.1306 37.7932C64.4556 36.8407 66.4413 35.2322 67.8367 33.1709C69.2321 31.1095 69.9747 28.6877 69.9706 26.2117C69.9678 24.5647 69.6346 22.9345 68.9902 21.4142C68.3456 19.894 67.4025 18.5137 66.2146 17.3522C65.0267 16.1907 63.6174 15.271 62.0675 14.6456C60.5176 14.0202 58.8573 13.7015 57.1819 13.7076ZM57.2292 33.5767C55.2505 33.5842 53.3497 32.8189 51.9451 31.4487C50.5405 30.0786 49.747 28.2162 49.7394 26.2711C49.7317 24.326 50.5104 22.4575 51.9041 21.0767C53.2979 19.6961 55.1926 18.9161 57.1714 18.9086C58.1511 18.9049 59.1222 19.0909 60.0287 19.456C60.9354 19.8211 61.7601 20.3582 62.4556 21.0366C63.1511 21.715 63.7037 22.5214 64.0822 23.4099C64.4607 24.2982 64.6574 25.2511 64.6613 26.2142C64.6651 27.1774 64.4758 28.1319 64.1044 29.0231C63.7329 29.9144 63.1865 30.7249 62.4964 31.4086C61.8063 32.0922 60.9859 32.6356 60.0821 33.0076C59.1784 33.3796 58.2089 33.573 57.2292 33.5767Z"></path>
              <path d="M124.409 32.3015C125.113 31 125.859 29.4556 125.859 26.2792C125.795 24.4262 125.338 22.6067 124.514 20.9388C124.495 20.7447 124.495 20.5492 124.514 20.3552C124.541 19.8077 126.815 14.6222 126.815 14.4621C126.815 13.6977 126.027 13.7132 125.307 13.7132H123.037C122.396 13.7132 121.65 13.5582 121.34 14.2297C121.03 14.9011 120.741 15.4433 120.605 15.6758C119.985 16.7088 117.773 14.4672 113.386 14.4672C110.165 14.485 107.082 15.7523 104.808 17.9937C102.534 20.235 101.253 23.2686 101.243 26.4342C101.243 33.3345 106.855 38.8298 113.491 38.8298C118.009 38.8298 119.27 37.0996 119.864 37.0996C120.794 37.0996 122.969 40.0591 122.969 44.2116C122.969 49.4848 118.619 54.7995 112.282 54.7995C109.557 54.7745 106.919 53.8526 104.79 52.181C104.164 51.7161 103.581 52.527 103.124 52.9505C102.667 53.374 102.121 53.9112 101.653 54.4225C101.185 54.9338 100.665 55.3315 101.175 55.972C103.644 58.9572 109.408 60.0522 111.815 60.0522C116.072 60.1412 120.192 58.573 123.279 55.6892C126.365 52.8053 128.167 48.8396 128.291 44.6557C128.291 37.6626 125.003 34.3518 124.462 33.6805C124.303 33.4867 124.212 33.2478 124.204 32.9995C124.194 32.7511 124.266 32.5063 124.409 32.3015ZM113.58 33.6391C112.617 33.668 111.657 33.5067 110.759 33.1651C109.86 32.8235 109.04 32.3083 108.347 31.65C107.654 30.9917 107.103 30.2037 106.725 29.3323C106.347 28.4611 106.15 27.5241 106.147 26.577C106.143 25.6297 106.333 24.6915 106.704 23.8175C107.076 22.9435 107.622 22.1515 108.31 21.4882C108.998 20.825 109.814 20.304 110.71 19.9558C111.606 19.6078 112.564 19.4397 113.527 19.4616C115.407 19.5043 117.195 20.2665 118.511 21.5857C119.827 22.9051 120.568 24.6773 120.575 26.5252C120.582 28.3731 119.854 30.1507 118.548 31.4793C117.241 32.8081 115.459 33.583 113.58 33.6391Z"></path>
              <path d="M96.0788 32.3015C96.7828 31 97.5341 29.4556 97.5341 26.2792C97.4705 24.4256 97.0105 22.606 96.1839 20.9388C96.1666 20.7446 96.1666 20.5493 96.1839 20.3552C96.1839 19.8077 98.4799 14.6222 98.4799 14.4621C98.4799 13.6977 97.6918 13.7132 96.972 13.7132H94.718C94.0717 13.7132 93.3255 13.5582 93.0155 14.2297C92.7055 14.9011 92.4219 15.4433 92.2799 15.6758C91.66 16.7088 89.4532 14.4672 85.0608 14.4672C81.8409 14.4863 78.7589 15.7542 76.485 17.9952C74.2112 20.2362 72.9293 23.2691 72.9183 26.4342C72.9183 33.3345 78.535 38.8298 85.1658 38.8298C89.6844 38.8298 90.9454 37.0996 91.5392 37.0996C92.4691 37.0996 94.6496 40.0591 94.6496 44.2116C94.6496 49.4848 90.294 54.7995 83.9574 54.7995C81.2323 54.7745 78.5943 53.8526 76.4649 52.181C75.8448 51.7161 75.2617 52.527 74.7993 52.9505C74.337 53.374 73.801 53.9112 73.3334 54.4225C72.8658 54.9338 72.3403 55.3315 72.8501 55.972C75.3195 58.9572 81.0833 60.0522 83.4897 60.0522C87.7357 60.1372 91.8446 58.5733 94.9252 55.6998C98.0059 52.8263 99.8098 48.8747 99.9458 44.7022C99.9458 37.7091 96.6567 34.3983 96.1208 33.727C95.9536 33.5277 95.8588 33.2795 95.8511 33.0213C95.8436 32.7632 95.9236 32.5098 96.0788 32.3015ZM85.2498 33.6443C84.2867 33.6731 83.3275 33.5118 82.4288 33.1702C81.5301 32.8286 80.7101 32.3135 80.0172 31.6552C79.3243 30.9968 78.7727 30.2088 78.3947 29.3375C78.0168 28.4662 77.8202 27.5293 77.8168 26.5821C77.8132 25.6348 78.0028 24.6966 78.3743 23.8226C78.7458 22.9486 79.2915 22.1566 79.9795 21.4933C80.6675 20.8302 81.4837 20.3091 82.3798 19.9611C83.2759 19.613 84.234 19.445 85.1973 19.4668C87.0767 19.5095 88.8648 20.2716 90.1812 21.591C91.4975 22.9102 92.2379 24.6826 92.2446 26.5305C92.2515 28.3783 91.5243 30.1558 90.2178 31.4846C88.9113 32.8132 87.1289 33.5882 85.2498 33.6443Z"></path>
              <path d="M39.4441 0H35.8188C35.2092 0 34.999 0.165276 34.999 0.816046V37.8686C34.999 38.6175 35.2197 38.8241 35.9974 38.8241H39.2865C40.0642 38.8241 40.2848 38.6175 40.2848 37.8686V0.795386C40.2638 0.165275 40.0589 0.00516485 39.4441 0Z"></path>
              <path d="M136.799 13.707H133.153C132.537 13.707 132.327 13.8723 132.327 14.5179C132.327 15.1635 132.327 31.7582 132.327 37.8579C132.327 38.6068 132.549 38.8134 133.326 38.8134H136.615C137.388 38.8134 137.608 38.6068 137.608 37.8579C137.608 31.7582 137.608 15.1739 137.608 14.5179C137.608 13.862 137.409 13.707 136.799 13.707Z"></path>
              <path d="M135.755 9.452C137.588 9.02676 138.724 7.22142 138.291 5.41967C137.859 3.61793 136.022 2.50206 134.19 2.92731C132.357 3.35256 131.221 5.15789 131.653 6.95964C132.086 8.76138 133.923 9.87725 135.755 9.452Z"></path>
           </svg>