<svg class="svgIcon cursor-pointer svgIcon__mapPin" xmlns="http://www.w3.org/2000/svg" xmlns:xlink="http://www.w3.org/1999/xlink" x="0px" y="0px" viewBox="0 0 20.2 24.3" style="enable-background:new 0 0 20.2 24.3;" xml:space="preserve">
            <path class="svgIcon--style3" d="m16.5 3.6c-1.7-1.7-4-2.6-6.4-2.6s-4.7 1-6.4 2.7-2.7 4-2.7 6.4 0.9 4.7 2.6 6.4l6.5 6.5 6.5-6.5c0.8-0.8 1.5-1.9 2-3s0.7-2.3 0.7-3.5-0.3-2.3-0.8-3.4c-0.4-1.1-1.1-2.1-2-3z"></path>
            <path class="svgIcon--style7" d="m10.1 14.6c2.5 0 4.6-2 4.6-4.6 0-2.5-2-4.6-4.6-4.6s-4.6 2-4.6 4.6 2.1 4.6 4.6 4.6z"></path>
        </svg>