<svg class="svgIcon cursor-pointer svgIcon__user flyout-toggle initialised" data-toggle="loginregister" xmlns="http://www.w3.org/2000/svg" xmlns:xlink="http://www.w3.org/1999/xlink" x="0px" y="0px" viewBox="0 0 18 20" style="enable-background:new 0 0 18 20;" xml:space="preserve">
            <path class="svgIcon--style6" d="M17,19v-2c0-1.1-0.4-2.1-1.2-2.8C15.1,13.4,14.1,13,13,13H5c-1.1,0-2.1,0.4-2.8,1.2C1.4,14.9,1,15.9,1,17v2H17z"></path>
            <path class="svgIcon--style3" d="M9,9c2.2,0,4-1.8,4-4s-1.8-4-4-4S5,2.8,5,5S6.8,9,9,9z"></path>
            <path class="svgIcon--style1" d="M17,19v-2c0-1.1-0.4-2.1-1.2-2.8C15.1,13.4,14.1,13,13,13H5c-1.1,0-2.1,0.4-2.8,1.2C1.4,14.9,1,15.9,1,17v2"></path>
        </svg>